# xmcd
#
# Track frame offsets:
#	150
#	10440
#	22557
#	32394
#	44904
#	55322
#	65977
#	76711
#	87432
#	97459
#	111343
#	121297
#	132592
#	143991
#	155614
#	167925
#
# Disc length: 2397 seconds
#
# Revision: 1
# Processed by: cddbd v1.5.2PL0 Copyright (c) Steve Scherf et al.
# Submitted via: audiograbber 1.83.01
#
DISCID=e6095b10
DTITLE=Jimmy Reed - Rockin´ With Reed
DYEAR=2003
DGENRE=Blues
TTITLE0=Going to New York
TTITLE1=A String to Your Heart
TTITLE2=Ends and Odds
TTITLE3=Caress Me Baby
TTITLE4=Take Out Some Insurance
TTITLE5=The Moon is Rising
TTITLE6=Down in Virginia
TTITLE7=I Know It´s a Sin
TTITLE8=Wanna Be Loved
TTITLE9=Baby, What´s on Your Mind
TTITLE10=My Bitter Seed
TTITLE11=Rockin´ with Reed
TTITLE12=When You Left Me*
TTITLE13=Honey, Where You Going? (Single version)*
TTITLE14=I Don´t Go for That*
TTITLE15=Signals of Love (Single version)*
EXTD=
EXTT0=
EXTT1=
EXTT2=
EXTT3=
EXTT4=
EXTT5=
EXTT6=
EXTT7=
EXTT8=
EXTT9=
EXTT10=
EXTT11=
EXTT12=
EXTT13=
EXTT14=
EXTT15=
PLAYORDER=
